<svg width="300" height="400" viewBox="0 0 300 400" xmlns="http://www.w3.org/2000/svg">
  <defs>
    <radialGradient id="petal" cx="50%" cy="50%" r="50%">
      <stop offset="0%" style="stop-color:#fce7f3;stop-opacity:1" />
      <stop offset="70%" style="stop-color:#ec4899;stop-opacity:0.8" />
      <stop offset="100%" style="stop-color:#be185d;stop-opacity:0.6" />
    </radialGradient>
  </defs>
  
  <!-- Branch -->
  <path d="M150,400 Q120,300 80,200 Q60,150 40,100 Q30,70 20,40" 
        stroke="#92400e" stroke-width="8" fill="none" opacity="0.7"/>
  <path d="M150,350 Q180,280 220,220 Q240,180 260,140" 
        stroke="#92400e" stroke-width="6" fill="none" opacity="0.7"/>
  
  <!-- Cherry blossoms -->
  <g transform="translate(30,60)">
    <ellipse cx="0" cy="0" rx="8" ry="15" fill="url(#petal)" opacity="0.8" transform="rotate(0)"/>
    <ellipse cx="0" cy="0" rx="8" ry="15" fill="url(#petal)" opacity="0.8" transform="rotate(72)"/>
    <ellipse cx="0" cy="0" rx="8" ry="15" fill="url(#petal)" opacity="0.8" transform="rotate(144)"/>
    <ellipse cx="0" cy="0" rx="8" ry="15" fill="url(#petal)" opacity="0.8" transform="rotate(216)"/>
    <ellipse cx="0" cy="0" rx="8" ry="15" fill="url(#petal)" opacity="0.8" transform="rotate(288)"/>
    <circle cx="0" cy="0" r="3" fill="#f59e0b" opacity="0.9"/>
  </g>
  
  <g transform="translate(70,120)">
    <ellipse cx="0" cy="0" rx="6" ry="12" fill="url(#petal)" opacity="0.7" transform="rotate(0)"/>
    <ellipse cx="0" cy="0" rx="6" ry="12" fill="url(#petal)" opacity="0.7" transform="rotate(72)"/>
    <ellipse cx="0" cy="0" rx="6" ry="12" fill="url(#petal)" opacity="0.7" transform="rotate(144)"/>
    <ellipse cx="0" cy="0" rx="6" ry="12" fill="url(#petal)" opacity="0.7" transform="rotate(216)"/>
    <ellipse cx="0" cy="0" rx="6" ry="12" fill="url(#petal)" opacity="0.7" transform="rotate(288)"/>
    <circle cx="0" cy="0" r="2" fill="#f59e0b" opacity="0.9"/>
  </g>
  
  <g transform="translate(50,180)">
    <ellipse cx="0" cy="0" rx="7" ry="13" fill="url(#petal)" opacity="0.6" transform="rotate(0)"/>
    <ellipse cx="0" cy="0" rx="7" ry="13" fill="url(#petal)" opacity="0.6" transform="rotate(72)"/>
    <ellipse cx="0" cy="0" rx="7" ry="13" fill="url(#petal)" opacity="0.6" transform="rotate(144)"/>
    <ellipse cx="0" cy="0" rx="7" ry="13" fill="url(#petal)" opacity="0.6" transform="rotate(216)"/>
    <ellipse cx="0" cy="0" rx="7" ry="13" fill="url(#petal)" opacity="0.6" transform="rotate(288)"/>
    <circle cx="0" cy="0" r="2.5" fill="#f59e0b" opacity="0.9"/>
  </g>
  
  <g transform="translate(230,160)">
    <ellipse cx="0" cy="0" rx="5" ry="10" fill="url(#petal)" opacity="0.7" transform="rotate(0)"/>
    <ellipse cx="0" cy="0" rx="5" ry="10" fill="url(#petal)" opacity="0.7" transform="rotate(72)"/>
    <ellipse cx="0" cy="0" rx="5" ry="10" fill="url(#petal)" opacity="0.7" transform="rotate(144)"/>
    <ellipse cx="0" cy="0" rx="5" ry="10" fill="url(#petal)" opacity="0.7" transform="rotate(216)"/>
    <ellipse cx="0" cy="0" rx="5" ry="10" fill="url(#petal)" opacity="0.7" transform="rotate(288)"/>
    <circle cx="0" cy="0" r="2" fill="#f59e0b" opacity="0.9"/>
  </g>
  
  <g transform="translate(260,200)">
    <ellipse cx="0" cy="0" rx="4" ry="8" fill="url(#petal)" opacity="0.6" transform="rotate(0)"/>
    <ellipse cx="0" cy="0" rx="4" ry="8" fill="url(#petal)" opacity="0.6" transform="rotate(72)"/>
    <ellipse cx="0" cy="0" rx="4" ry="8" fill="url(#petal)" opacity="0.6" transform="rotate(144)"/>
    <ellipse cx="0" cy="0" rx="4" ry="8" fill="url(#petal)" opacity="0.6" transform="rotate(216)"/>
    <ellipse cx="0" cy="0" rx="4" ry="8" fill="url(#petal)" opacity="0.6" transform="rotate(288)"/>
    <circle cx="0" cy="0" r="1.5" fill="#f59e0b" opacity="0.9"/>
  </g>
</svg> 